<?xml version="1.0" encoding="iso-8859-1"?>
<!-- Generator: Adobe Illustrator 19.0.0, SVG Export Plug-In . SVG Version: 6.00 Build 0)  -->
<svg version="1.1" id="Layer_1" xmlns="http://www.w3.org/2000/svg" xmlns:xlink="http://www.w3.org/1999/xlink" x="0px" y="0px"
	 viewBox="0 0 512 512" xml:space="preserve">
<g>
<!-- style="enable-background:new 0 0 512 512;" -->
	<g>
		<path fill="#e31e24" d="M507.044,100.589c-19.188-19.188-82.857-82.858-95.637-95.637c-6.604-6.604-17.303-6.604-23.907,0
			c-6.604,6.604-6.604,17.303,0,23.907l0.002,0.002l-31.515,31.516c-80.663-41.158-185.441-29.731-255.394,40.218
			c-70.583,70.583-80.951,175.532-40.213,255.389l-31.518,31.518c-6.604-6.604-17.303-6.604-23.907,0
			c-6.604,6.604-6.604,17.303,0,23.907c17.982,17.982,61.541,61.541,95.638,95.638c6.605,6.605,17.302,6.605,23.907,0
			c6.604-6.604,6.604-17.303,0-23.907l-0.001-0.001l31.515-31.518c76.48,40.488,183.349,31.841,255.392-40.212
			c67.05-67.052,83.349-170.845,40.214-255.391l31.517-31.52c6.605,6.605,17.302,6.604,23.906-0.001
			C513.647,117.893,513.647,107.193,507.044,100.589z M100.594,459.232L52.77,411.409l25.947-25.947
			c0.959,1.439,5.86,7.921,10.48,13.438l0.05-0.05c9.734,11.35,12.556,14.172,23.907,23.907l-0.051,0.051
			c6.405,5.349,8.089,6.468,13.436,10.479L100.594,459.232z M441.037,273.719l-89.381-89.478l-23.894,23.894l104.989,105.09
			c-3.689,11.46-8.517,22.606-14.482,33.309L303.867,232.029l-24.007,24.007l118.998,118.895
			c-3.589,4.305-7.319,8.532-11.357,12.569c-4.027,4.027-8.244,7.746-12.535,11.326L255.967,279.931l-23.894,23.894l114.449,114.449
			c-10.703,5.963-21.849,10.791-33.31,14.479L208.178,327.719l-23.894,23.894l89.421,89.421
			c-16.635,1.577-33.427,0.802-49.919-2.076l-63.418-63.416l-23.305,23.306c-9.668-8.06-15.814-14.197-23.908-23.906l23.305-23.306
			l-63.417-63.416c-2.875-16.465-3.648-33.225-2.082-49.833l89.428,89.332l23.894-23.894L79.246,198.789
			c3.688-11.46,8.516-22.606,14.48-33.309l114.45,114.45l23.895-23.894L113.174,137.037c3.58-4.293,7.299-8.508,11.326-12.535
			c4.038-4.037,8.265-7.768,12.569-11.357l118.895,118.997l23.894-24.007L165.463,93.739c10.705-5.967,21.852-10.796,33.316-14.485
			l105.089,104.988l23.894-23.894l-89.477-89.38c5.89-0.559,11.802-0.844,17.714-0.844c10.792,0,21.568,1.061,32.227,2.921
			l63.41,63.412l23.304-23.304c9.67,8.062,15.812,14.196,23.907,23.906l-23.305,23.305l63.419,63.42
			C441.839,240.281,442.616,257.08,441.037,273.719z M433.286,126.538c-3.598-4.906-6.464-8.63-10.481-13.439l-0.052,0.052
			c-9.708-11.319-12.531-14.152-23.906-23.908l0.052-0.052c-5.217-4.369-8.428-6.774-13.435-10.477l25.946-25.946l47.821,47.821
			L433.286,126.538z"/>
	</g>
</g>
<g>
</g>
<g>
</g>
<g>
</g>
<g>
</g>
<g>
</g>
<g>
</g>
<g>
</g>
<g>
</g>
<g>
</g>
<g>
</g>
<g>
</g>
<g>
</g>
<g>
</g>
<g>
</g>
<g>
</g>
</svg>
